<?xml version="1.0" encoding="utf-8"?>
<!-- Generator: Adobe Illustrator 24.1.0, SVG Export Plug-In . SVG Version: 6.00 Build 0)  -->
<svg version="1.1" id="Layer_1" xmlns="http://www.w3.org/2000/svg" xmlns:xlink="http://www.w3.org/1999/xlink" x="0px" y="0px"
	 viewBox="0 0 360.42 113.54" style="enable-background:new 0 0 360.42 113.54;" xml:space="preserve">
<style type="text/css">
	.st0{fill:#00A7E1;}
	.st1{fill:#DADADA;}
	.st2{fill:#D50057;}
</style>
<g>
	<path class="st0" d="M148.96,67.84c-0.42-0.78-1.06-1.48-1.91-2.11c-0.85-0.63-1.8-1.13-2.86-1.51c-1.06-0.38-2.17-0.67-3.32-0.85
		c-3.43-0.51-6.62-1.62-9.59-3.33c-0.25-0.13-0.53-0.42-0.81-0.86c-0.29-0.44-0.43-0.87-0.43-1.27c0-1.49,0.25-2.99,0.75-4.49
		c0.5-1.5,1.14-2.68,1.92-3.52c1.25-1.41,3.51-2.64,6.78-3.69s6.94-1.58,11.03-1.58c2.44,0,4.33,0.19,5.66,0.56s2,0.95,2,1.73
		c0,1.27-0.17,2.26-0.52,2.95s-0.72,1.16-1.12,1.39c-0.4,0.23-1.1,0.54-2.1,0.93c-1.07,0.37-2,0.76-2.79,1.17s-1.46,0.8-2.02,1.17
		c-0.56,0.37-0.91,0.56-1.04,0.56c-0.17,0-0.25-0.07-0.25-0.2c0-0.29,0.3-0.73,0.9-1.31c0.6-0.59,1.34-1.1,2.23-1.54
		c0.93-0.49,1.4-0.81,1.4-0.94c0-0.22-0.52-0.33-1.55-0.33c-3.14,0-6.04,0.28-8.7,0.84c-2.66,0.56-4.76,1.3-6.3,2.21
		s-2.3,1.85-2.3,2.8c0,0.59,0.32,1.01,0.95,1.26c0.64,0.25,2.04,0.66,4.21,1.23c2.17,0.58,4.11,1.24,5.83,1.98
		c2.46,1.05,4.28,2.15,5.47,3.28c1.19,1.14,1.78,2.41,1.78,3.82c0,0.97-0.23,1.94-0.7,2.91s-1.15,1.87-2.05,2.68
		c-0.9,0.81-1.93,1.48-3.1,2.01c-1,0.42-2.26,0.82-3.78,1.2c-1.52,0.37-3.16,0.67-4.94,0.88c-1.77,0.21-3.46,0.32-5.08,0.32
		c-2.97,0-5.36-0.28-7.16-0.84c-1.81-0.56-2.71-1.41-2.71-2.54c0-0.51,0.31-1.3,0.92-2.38c0.61-1.08,1.33-1.8,2.16-2.18
		c0.73-0.29,1.43-0.45,2.11-0.5c0.68-0.04,1.02,0.04,1.02,0.24c0,0.05-0.03,0.1-0.08,0.15s-0.11,0.09-0.18,0.13
		c-0.07,0.03-0.14,0.07-0.2,0.1c-0.34,0.14-0.62,0.24-0.83,0.32c-0.21,0.08-0.38,0.15-0.51,0.23c-0.13,0.08-0.19,0.18-0.19,0.32
		c0,0.36,1.76,0.53,5.27,0.53c3.05,0,5.55-0.11,7.5-0.33c1.95-0.22,3.67-0.62,5.16-1.2C146.38,69.66,147.74,68.86,148.96,67.84z"/>
	<path class="st1" d="M172.65,67.13v1.7c-1.12,1.02-2.02,1.7-2.7,2.04c-0.68,0.34-1.65,0.48-2.93,0.41
		c-2.21,2.61-4.15,3.92-5.83,3.92c-0.95,0-1.82-0.31-2.6-0.94c-0.78-0.63-1.4-1.48-1.87-2.57c-0.47-1.08-0.7-2.3-0.7-3.64
		c0-1.09,0.36-2.29,1.08-3.61c0.72-1.32,1.65-2.56,2.8-3.7c1.15-1.15,2.37-2.07,3.68-2.77c1.31-0.7,2.52-1.06,3.64-1.06
		c0.8,0,1.42,0.12,1.88,0.37c0.46,0.25,0.69,0.59,0.69,1.03c0,0.34-0.2,0.73-0.59,1.17c0.64,0.14,1.08,0.36,1.32,0.67
		c0.24,0.31,0.36,0.89,0.36,1.72c0,0.81-0.19,1.84-0.57,3.08c-0.38,1.24-0.9,2.4-1.56,3.49l0.46,0.46h0.38
		c0.29,0,0.57-0.07,0.85-0.22c0.28-0.14,0.53-0.3,0.75-0.46S171.9,67.69,172.65,67.13z M167.41,60.44c-1.41,0.85-2.61,1.62-3.61,2.3
		c-1,0.69-1.85,1.38-2.54,2.09c-0.7,0.7-1.16,1.41-1.4,2.12c-0.42,1.9-0.64,2.93-0.64,3.08c0,1.12,0.78,1.68,2.34,1.68
		c0.73,0,1.95-0.63,3.66-1.88c-0.29-0.8-0.43-1.56-0.43-2.29c0-1.07,0.22-2.16,0.66-3.27C165.89,63.16,166.54,61.88,167.41,60.44z"
		/>
	<path class="st1" d="M184.58,65.45c-2.46,3.26-4.33,5.57-5.61,6.95c-1.28,1.37-2.33,2.06-3.14,2.06c-0.64,0-1.24-0.27-1.78-0.8
		c-0.54-0.53-0.96-1.25-1.26-2.16s-0.45-1.88-0.45-2.91c0-0.68,0.06-1.29,0.19-1.83c0.13-0.54,0.37-1.14,0.72-1.79
		c0.36-0.65,0.83-1.36,1.41-2.12c0.58-0.76,1.3-1.63,2.15-2.59c0.51-0.59,0.94-1.09,1.29-1.5s0.69-0.68,1.02-0.83
		s0.87-0.22,1.62-0.22c0.54,0,1.06,0.07,1.55,0.22c0.49,0.14,0.74,0.29,0.74,0.44c0,0.31-0.25,0.86-0.75,1.65
		c-0.5,0.8-1.31,1.77-2.42,2.91c-1.11,1.15-2.4,2.27-3.85,3.37c-0.32,1-0.48,1.76-0.48,2.29c0,0.73,0.28,1.09,0.84,1.09
		c0.2,0,0.54-0.17,1.02-0.52c0.47-0.35,1.28-1.02,2.4-2.01s2.14-1.87,3.04-2.63c0.66-0.58,1.43-1.44,2.3-2.58
		c0.87-1.14,1.58-2,2.12-2.58c1.25-1.32,2.11-2.18,2.57-2.58s0.9-0.6,1.32-0.6c0.41,0,0.68,0.13,0.83,0.38
		c0.14,0.25,0.22,0.77,0.22,1.55c0,0.36-0.03,0.65-0.1,0.87c-0.07,0.22-0.21,0.5-0.42,0.85c-0.21,0.35-0.64,0.99-1.29,1.92
		s-1.41,2.04-2.29,3.31c-0.47,0.68-0.89,1.42-1.25,2.23s-0.53,1.41-0.53,1.82c0,0.88,0.35,1.32,1.04,1.32
		c0.58,0,1.25-0.24,2.01-0.71s1.93-1.33,3.51-2.57v1.7c-1.98,1.83-3.45,3.16-4.4,3.99c-0.95,0.83-1.77,1.46-2.47,1.88
		c-0.7,0.42-1.36,0.64-1.98,0.64c-1.42,0-2.14-0.85-2.14-2.54c0-0.64,0.21-1.51,0.64-2.61S183.63,67.52,184.58,65.45z"/>
	<path class="st1" d="M209.79,62.58c-2.99,3.32-4.48,5.64-4.48,6.95c0,0.73,0.3,1.09,0.89,1.09c0.49,0,1.13-0.26,1.92-0.78
		c0.79-0.52,2.02-1.44,3.7-2.76v1.75c-2.41,2.38-4.26,4.09-5.55,5.14c-1.29,1.05-2.34,1.58-3.16,1.58c-1.39,0-2.09-0.92-2.09-2.75
		c0-0.54,0.08-1.08,0.25-1.6c0.17-0.53,0.4-1.07,0.7-1.64s0.75-1.38,1.36-2.44c0.61-1.06,1.31-2.26,2.11-3.6
		c-0.97,0.49-2.18,1.47-3.64,2.93c-0.95,0.92-1.76,1.79-2.42,2.61c-0.66,0.82-1.37,1.74-2.12,2.75c-0.75,1.01-1.31,1.69-1.65,2.04
		c-0.35,0.35-0.7,0.52-1.06,0.52c-0.54,0-1.04-0.57-1.5-1.71c-0.46-1.14-0.69-2.46-0.69-3.97c0-0.93,0.11-1.66,0.32-2.19
		c0.21-0.53,0.63-1.27,1.26-2.24c1.17-1.8,2.18-3.12,3.03-3.96c0.85-0.84,1.66-1.26,2.44-1.26c0.54,0,0.98,0.09,1.31,0.28
		c0.33,0.19,0.5,0.48,0.5,0.87c0,0.17-0.05,0.35-0.15,0.53s-0.22,0.36-0.34,0.51c-0.13,0.15-0.39,0.45-0.8,0.89
		c-2.68,2.97-4.02,4.89-4.02,5.77c0,0.49,0.16,0.74,0.48,0.74c0.2,0,0.6-0.33,1.18-0.98s1.34-1.51,2.26-2.57
		c0.92-1.06,2.02-2.17,3.28-3.32s2.7-2.26,4.31-3.33c0.9-0.63,1.64-0.94,2.24-0.94c0.27,0,0.54,0.37,0.8,1.12
		c0.26,0.75,0.39,1.5,0.39,2.26C210.89,61.25,210.52,61.82,209.79,62.58z"/>
	<path class="st1" d="M223.3,67.23c-1.49,1.7-2.83,3.14-4.01,4.33s-2.14,2.07-2.88,2.66c-0.74,0.58-1.24,0.88-1.51,0.88
		c-0.44,0-0.94-0.36-1.49-1.07c-0.55-0.71-1.02-1.62-1.41-2.72c-0.39-1.1-0.59-2.22-0.59-3.36c0-1.64,0.8-3.3,2.39-4.97
		c1.59-1.67,3.41-3.06,5.44-4.16c2.04-1.1,3.56-1.65,4.58-1.65c0.83,0,1.64,0.53,2.44,1.58c1.31-2.73,2.55-5.16,3.73-7.28
		c1.18-2.12,2.17-3.7,2.96-4.73c0.8-1.03,1.37-1.55,1.71-1.55c0.37,0,0.72,0.18,1.03,0.55c0.31,0.36,0.47,0.78,0.47,1.23
		c0,0.88-0.65,2.4-1.93,4.54c-1.29,2.15-2.56,4.24-3.82,6.27c-1.25,2.04-2.33,4.04-3.23,6.02c-0.9,1.98-1.35,3.8-1.35,5.48
		c0,1.53,0.49,2.29,1.48,2.29c0.59,0,1.34-0.33,2.24-1c0.9-0.67,2.18-1.79,3.84-3.37v1.86c-3.66,4.73-6.49,7.1-8.47,7.1
		c-0.8,0-1.37-0.3-1.72-0.92c-0.35-0.61-0.52-1.52-0.52-2.72C222.69,70.87,222.89,69.12,223.3,67.23z M225.18,61.03
		c-1.51,0.51-3.28,1.33-5.32,2.46c-2.04,1.13-3.27,1.9-3.69,2.33c-0.37,0.34-0.7,0.98-0.99,1.91c-0.29,0.93-0.43,1.64-0.43,2.11
		c0,0.29,0.08,0.53,0.25,0.71c0.17,0.19,0.38,0.28,0.64,0.28c0.24,0,0.51-0.1,0.81-0.3c0.3-0.2,0.79-0.6,1.46-1.2
		c0.67-0.59,1.11-0.97,1.31-1.14c0.29-0.25,0.93-0.8,1.92-1.64c0.99-0.84,1.72-1.5,2.18-1.97s0.85-1,1.17-1.59
		C224.82,62.39,225.05,61.74,225.18,61.03z"/>
	<path class="st0" d="M277.49,67.08v1.35c-1.93,1.63-3.85,3.18-5.75,4.67s-4.21,3.14-6.92,4.97c-1.39,1.9-2.59,3.46-3.59,4.67
		c-1,1.21-1.87,2.22-2.6,3.01c-0.73,0.8-1.1,1.2-1.12,1.22c-0.24,0.29-0.64,0.58-1.2,0.87c-0.56,0.29-1.03,0.43-1.4,0.43
		c-0.53,0-0.96-0.19-1.31-0.57s-0.52-0.84-0.52-1.36c0-1.36,0.71-2.8,2.14-4.34c1.42-1.54,3.51-3.11,6.26-4.72
		c1.36-1.95,2.65-3.91,3.89-5.89c1.24-1.98,2.32-3.78,3.24-5.41c0.92-1.63,1.78-3.23,2.56-4.81c-1.22,1.02-2.43,2-3.64,2.94
		c-1.21,0.94-2.38,1.84-3.54,2.7s-1.87,1.39-2.14,1.59c-0.27,0.2-0.51,0.38-0.71,0.53c-2.95,2.58-5.16,3.87-6.62,3.87
		c-1.39,0-2.56-0.66-3.51-1.98c-0.95-1.32-1.42-2.99-1.42-5.01c0-1.27,0.2-2.6,0.61-3.98c0.41-1.38,1.03-2.8,1.87-4.26
		c0.84-1.46,1.84-2.87,3.01-4.22c1.17-1.36,2.46-2.6,3.87-3.74c2.17-1.73,4.61-3.28,7.3-4.64s5.21-2.41,7.53-3.13
		c2.32-0.72,4.04-1.08,5.14-1.08c0.64,0,1.16,0.16,1.54,0.47s0.65,0.74,0.81,1.27c0.16,0.53,0.24,1.1,0.24,1.69
		c0,0.54-0.17,1.09-0.51,1.63c-0.49,0.73-1.36,1.5-2.59,2.3c-1.24,0.81-2.49,1.52-3.74,2.14c-1.25,0.62-1.98,0.93-2.16,0.93
		c-0.1,0-0.15-0.03-0.15-0.1c0-0.15,0.2-0.4,0.59-0.74c0.39-0.34,0.82-0.69,1.3-1.04c1.05-0.8,1.67-1.64,1.86-2.54
		c-1.65,0.46-3.28,1.06-4.91,1.81c-1.63,0.75-3.24,1.64-4.83,2.67c-1.59,1.03-3.19,2.21-4.78,3.54c-1.8,1.51-3.33,3.08-4.59,4.72
		c-1.26,1.64-2.22,3.15-2.88,4.54c-0.65,1.39-0.98,2.46-0.98,3.21c0,0.56,0.18,1.05,0.53,1.46c0.36,0.42,0.84,0.62,1.45,0.62
		c0.71,0,1.59-0.31,2.65-0.94c1.14-0.68,2.39-1.55,3.75-2.61c1.37-1.06,2.62-2.06,3.78-3.01s2.4-1.99,3.74-3.13
		c1.24-1.04,2.2-1.87,2.89-2.51c0.69-0.64,1.2-1.19,1.54-1.67c0.71-0.98,1.42-1.55,2.12-1.7c0.7-0.15,1.31-0.01,1.81,0.42
		c0.5,0.43,0.75,0.96,0.75,1.59c0,0.2-0.37,1-1.11,2.38c-0.74,1.38-1.87,3.38-3.38,6c-1.52,2.62-3.39,5.71-5.61,9.27
		C270.02,72.36,273.17,70.25,277.49,67.08z"/>
	<path class="st1" d="M277.11,69.14v-1.65c0.92-1.09,1.61-2.01,2.09-2.77c-0.54-0.19-0.94-0.42-1.18-0.69
		c-0.25-0.27-0.37-0.68-0.37-1.22c0-0.61,0.25-1.38,0.76-2.32c0.51-0.93,1.14-1.81,1.88-2.62c0.75-0.81,1.42-1.34,2.04-1.58
		c0.24-0.12,0.47-0.18,0.69-0.18c0.34,0,0.51,0.16,0.51,0.48c0,0.29-0.26,0.87-0.79,1.76c3.49-0.54,5.7-0.81,6.61-0.81
		c0.36,0,0.6,0.03,0.74,0.1c0.29,0.15,0.53,0.51,0.71,1.07s0.28,1.12,0.28,1.68c0,0.36-0.16,0.74-0.47,1.16
		c-0.31,0.42-0.85,1.02-1.62,1.82c-0.9,0.97-1.65,2.02-2.26,3.16c-0.61,1.14-0.92,1.99-0.92,2.57c0,0.8,0.49,1.2,1.48,1.2
		c1.03,0,2.83-1.05,5.39-3.15v1.7c-1.41,1.48-2.57,2.64-3.49,3.49c-0.92,0.85-1.76,1.52-2.54,2.02c-0.78,0.5-1.48,0.75-2.09,0.75
		c-0.71,0-1.31-0.33-1.78-0.98c-0.48-0.65-0.71-1.6-0.71-2.84c0-0.73,0.19-1.56,0.56-2.49c0.37-0.93,0.92-1.95,1.64-3.04
		c0.72-1.09,1.53-2.18,2.43-3.27c-0.48,0.1-1.01,0.21-1.6,0.32c-0.59,0.11-1.22,0.22-1.88,0.34c-0.66,0.12-1.17,0.21-1.53,0.28
		C280.64,65.52,279.11,67.43,277.11,69.14z"/>
	<path class="st1" d="M295.55,62.63c2.58-2.34,5.08-4.08,7.5-5.22s4.3-1.7,5.62-1.7c0.36,0,0.69,0.15,0.99,0.44
		c0.3,0.3,0.55,0.64,0.72,1.03c0.18,0.39,0.27,0.68,0.27,0.86c0,0.31-0.12,0.53-0.36,0.67s-0.65,0.32-1.25,0.52
		c0.12,0.27,0.27,0.62,0.46,1.04s0.33,0.77,0.43,1.03s0.15,0.5,0.15,0.7c0,0.41-0.41,1.17-1.23,2.28c-0.82,1.11-1.4,1.93-1.73,2.46
		c-0.33,0.53-0.5,1.17-0.5,1.93c0,1.25,0.58,1.88,1.73,1.88c1.19,0,3.04-1.11,5.57-3.33v1.55c-4.29,4.77-7.36,7.15-9.21,7.15
		c-0.66,0-1.13-0.22-1.41-0.65c-0.28-0.43-0.42-1.07-0.42-1.92c0-1.34,0.48-3.28,1.45-5.83c-2.48,2.75-4.32,4.7-5.52,5.86
		c-1.21,1.16-2.2,1.74-2.98,1.74c-0.37,0-0.84-0.32-1.4-0.97s-1.06-1.48-1.49-2.51s-0.65-2.09-0.65-3.19c0-0.8,0.08-1.46,0.23-2
		c0.15-0.53,0.45-1.08,0.89-1.64C293.88,64.28,294.59,63.55,295.55,62.63z M307.74,59.83c-4.41,2.02-7.55,3.73-9.43,5.14
		c-1.88,1.41-2.81,2.86-2.81,4.35c0,0.54,0.09,0.99,0.28,1.34s0.44,0.52,0.76,0.52c0.19,0,0.52-0.12,0.99-0.36
		c1.78-1.05,3.41-2.42,4.88-4.11S305.67,62.73,307.74,59.83z"/>
	<path class="st1" d="M329.04,67.23v1.7c-1.82,1.78-3.29,3.16-4.44,4.15s-2.21,1.75-3.21,2.29c-0.99,0.54-1.96,0.81-2.91,0.81
		c-0.93,0-1.79-0.37-2.57-1.11c-0.78-0.74-1.39-1.7-1.83-2.9c-0.44-1.2-0.66-2.46-0.66-3.8c0-1.15,0.25-2.18,0.76-3.08
		c0.51-0.9,1.49-2.06,2.95-3.49c1.73-1.7,3.34-3.01,4.82-3.93c1.48-0.92,2.65-1.39,3.5-1.39c0.61,0,1.13,0.21,1.55,0.64
		c0.42,0.42,0.64,0.96,0.64,1.6c0,0.54-0.28,1.31-0.84,2.31c-0.56,1-1.19,1.87-1.88,2.61c-0.7,0.74-1.25,1.11-1.65,1.11
		c-0.44,0-0.66-0.24-0.66-0.71c0.02-0.14,0.03-0.26,0.04-0.38c0.01-0.12,0.01-0.24,0.01-0.36c0-0.2-0.07-0.32-0.22-0.34
		c-0.14-0.03-0.32,0.04-0.52,0.19c-1.7,1.19-2.86,2.02-3.49,2.51c-0.63,0.48-1.12,0.97-1.49,1.46c-0.36,0.49-0.55,1.01-0.55,1.55
		c0,1,0.32,1.82,0.97,2.44c0.64,0.63,1.48,0.94,2.52,0.94c1.07,0,2.35-0.41,3.85-1.23C325.23,70.01,327,68.81,329.04,67.23z"/>
	<path class="st1" d="M333,68.1v0.64c0,1,0.25,1.78,0.74,2.34c0.49,0.56,1.14,0.84,1.93,0.84c0.83,0,1.69-0.2,2.58-0.59
		c0.89-0.39,1.78-0.91,2.66-1.55s1.96-1.51,3.23-2.59v1.55c-1.92,2.31-3.71,4.08-5.39,5.3c-1.68,1.23-3.38,1.84-5.11,1.84
		c-1.51,0-2.71-0.59-3.59-1.76s-1.32-2.77-1.32-4.81c0-1.78,0.42-3.4,1.25-4.85c0.83-1.45,2.19-2.98,4.07-4.59
		c1.29-1.1,2.57-1.93,3.84-2.49c1.27-0.56,2.41-0.84,3.41-0.84c0.8,0,1.43,0.18,1.9,0.55c0.47,0.37,0.7,0.91,0.7,1.64
		c0,1.07-0.4,2.13-1.2,3.19c-0.8,1.06-2.01,2.11-3.65,3.16S335.4,67.13,333,68.1z M333.26,66.44c1.53-0.59,2.83-1.33,3.92-2.21
		c1.08-0.88,1.89-1.73,2.4-2.53c0.52-0.81,0.78-1.4,0.78-1.77c0-0.39-0.18-0.59-0.53-0.59c-0.31,0-0.8,0.2-1.49,0.59
		c-0.69,0.39-1.38,0.9-2.09,1.53c-0.7,0.63-1.34,1.37-1.9,2.21C333.79,64.52,333.43,65.44,333.26,66.44z"/>
</g>
<g>
	<circle class="st2" cx="23.75" cy="47.48" r="1.02"/>
	<path class="st0" d="M107.67,78.66c0.17-19.03-14.7-19.2-14.7-19.2c-1.44,4.67-3.23,8.05-3.23,8.05l1.95,1.29
		c0,0,1.2-2.41,2.55-6.63c0,0,13.41-0.7,13.25,16.48"/>
	<g>
		<path class="st1" d="M15.61,49.33c0,0,9.49,1.55,10.94,13.7s6.63,28.37,24.38,33.3c0,0-22.68-1.95-26.5-31
			C24.43,65.32,23.2,52.54,15.61,49.33z"/>
		<path class="st0" d="M70.8,70.59C41.99,68.1,43.96,47.74,43.96,47.74c0.76-27.77,34.06-28.87,34.06-28.87s-37.33-1.07-37.79,28.91
			c0,0-0.66,20.33,28.15,22.82c25.17,2.18,23.37,27.48-3.41,28.22C96.54,98.87,96.71,72.83,70.8,70.59z"/>
		<path class="st1" d="M16.42,47.4c2.61-1.68,11.67-8.08,16.76,4.01l1.1-0.87c-5.78-11.89-15.5-5.03-17.77-3.19L16.42,47.4z"/>
		<path class="st1" d="M59.34,45.27c0-16.31,14.78-24.72,14.78-24.72s-16.95,6.41-16.37,26.1L59.34,45.27z"/>
		<path class="st0" d="M107.55,69.41c-4.68,7.26-11.44,13.95-19.47,18.66c-17.85,10.48-35.24,7.24-38.83-7.25
			s7.97-34.73,25.83-45.22c6.36-3.74,12.67-5.73,18.31-6.09c-5.35,0.29-11.58,2.81-17.58,6.37c-16.82,9.98-26.4,29-22.83,43.11
			c3.57,14.11,18.62,17.42,35.76,7.99c8.5-4.68,12.89-13.23,17.25-20.22L107.55,69.41z"/>
		<path class="st1" d="M71.06,68.89c5.48-26.76,21.83-37.21,21.83-37.21S74.37,43.74,69.02,68.46L71.06,68.89z"/>
	</g>
</g>
</svg>
