<?xml version="1.0" encoding="utf-8"?>
<!-- Generator: Adobe Illustrator 24.1.0, SVG Export Plug-In . SVG Version: 6.00 Build 0)  -->
<svg version="1.1" id="Layer_1" xmlns="http://www.w3.org/2000/svg" xmlns:xlink="http://www.w3.org/1999/xlink" x="0px" y="0px"
	 viewBox="0 0 545.45 125.09" style="enable-background:new 0 0 545.45 125.09;" xml:space="preserve">
<style type="text/css">
	.st0{fill:#D50057;}
	.st1{fill:#00A7E1;}
	.st2{fill:#98989A;}
</style>
<g>
	<g>
		<circle class="st0" cx="233.85" cy="50.88" r="1.02"/>
		<path class="st1" d="M317.77,82.05c0.17-19.03-14.7-19.2-14.7-19.2c-1.44,4.67-3.23,8.05-3.23,8.05l1.95,1.29
			c0,0,1.2-2.41,2.55-6.63c0,0,13.41-0.7,13.25,16.48"/>
		<g>
			<path class="st2" d="M225.71,52.73c0,0,9.49,1.55,10.94,13.7c1.44,12.15,6.63,28.37,24.38,33.3c0,0-22.68-1.95-26.5-31
				C234.53,68.72,233.29,55.93,225.71,52.73z"/>
			<path class="st1" d="M280.9,73.99c-28.81-2.49-26.84-22.85-26.84-22.85c0.76-27.77,34.06-28.87,34.06-28.87
				s-37.33-1.07-37.79,28.91c0,0-0.66,20.33,28.15,22.82c25.17,2.18,23.37,27.48-3.41,28.22C306.64,102.27,306.81,76.23,280.9,73.99
				z"/>
			<path class="st2" d="M226.52,50.8c2.61-1.68,11.67-8.08,16.76,4.01l1.1-0.87c-5.78-11.89-15.5-5.03-17.77-3.19L226.52,50.8z"/>
			<path class="st2" d="M269.44,48.67c0-16.31,14.78-24.72,14.78-24.72s-16.95,6.41-16.37,26.1L269.44,48.67z"/>
			<path class="st1" d="M317.64,72.81c-4.68,7.26-11.44,13.95-19.47,18.66c-17.85,10.48-35.24,7.24-38.83-7.25
				c-3.59-14.49,7.97-34.73,25.83-45.22c6.36-3.74,12.67-5.73,18.31-6.09c-5.35,0.29-11.58,2.81-17.58,6.37
				c-16.82,9.98-26.4,29-22.83,43.11s18.62,17.42,35.76,7.99c8.5-4.68,12.89-13.23,17.25-20.22L317.64,72.81z"/>
			<path class="st2" d="M281.16,72.29c5.48-26.76,21.83-37.21,21.83-37.21s-18.52,12.06-23.87,36.78L281.16,72.29z"/>
		</g>
	</g>
	<path class="st2" d="M195.27,72.29H42.91c-1.94,0-3.51-1.57-3.51-3.51v0c0-1.94,1.57-3.51,3.51-3.51h152.36
		c1.94,0,3.51,1.57,3.51,3.51v0C198.78,70.71,197.21,72.29,195.27,72.29z"/>
	<path class="st1" d="M188.46,72.29H36.11c-1.94,0-3.51-1.57-3.51-3.51v0c0-1.94,1.57-3.51,3.51-3.51h152.36
		c1.94,0,3.51,1.57,3.51,3.51v0C191.97,70.71,190.4,72.29,188.46,72.29z"/>
	<path class="st2" d="M348.21,65.27h152.36c1.94,0,3.51,1.57,3.51,3.51v0c0,1.94-1.57,3.51-3.51,3.51H348.21
		c-1.94,0-3.51-1.57-3.51-3.51v0C344.7,66.84,346.28,65.27,348.21,65.27z"/>
	<path class="st1" d="M355.02,65.27h152.36c1.94,0,3.51,1.57,3.51,3.51v0c0,1.94-1.57,3.51-3.51,3.51H355.02
		c-1.94,0-3.51-1.57-3.51-3.51v0C351.51,66.84,353.08,65.27,355.02,65.27z"/>
</g>
</svg>
